<svg width="17" height="16" viewBox="0 0 17 16" fill="none" xmlns="http://www.w3.org/2000/svg">
<path id="icons8-copy" d="M1.84003 -2.78397e-05C1.629 -0.00102521 1.41984 0.039581 1.22452 0.119469C1.02919 0.199358 0.851525 0.316962 0.701678 0.465558C0.551831 0.614153 0.432741 0.790827 0.351217 0.985477C0.269693 1.18013 0.227335 1.38894 0.226562 1.59997V12.7999H1.84003V1.59997H13.1318V-2.78397e-05H1.84003ZM5.06613 3.19997C4.8551 3.19897 4.64594 3.23957 4.45062 3.31946C4.25529 3.39935 4.07762 3.51696 3.92778 3.66555C3.77793 3.81415 3.65884 3.99082 3.57732 4.18547C3.49579 4.38012 3.45343 4.58893 3.45266 4.79996V14.3999C3.45343 14.611 3.49579 14.8198 3.57732 15.0144C3.65884 15.2091 3.77793 15.3858 3.92778 15.5344C4.07762 15.6829 4.25529 15.8006 4.45062 15.8804C4.64594 15.9603 4.8551 16.0009 5.06613 15.9999H14.7444C14.9555 16.0009 15.1646 15.9603 15.3599 15.8804C15.5553 15.8006 15.7329 15.6829 15.8828 15.5344C16.0326 15.3858 16.1517 15.2091 16.2332 15.0144C16.3148 14.8198 16.3571 14.611 16.3579 14.3999V4.79996C16.3571 4.58893 16.3148 4.38012 16.2332 4.18547C16.1517 3.99082 16.0326 3.81415 15.8828 3.66555C15.7329 3.51696 15.5553 3.39935 15.3599 3.31946C15.1646 3.23957 14.9555 3.19897 14.7444 3.19997H5.06613ZM5.06613 4.79996H14.7444V14.3999H5.06613V4.79996Z" fill="black"/>
</svg>
